<?xml version="1.0" encoding="UTF-8"?>
<svg version="1.1" xmlns="http://www.w3.org/2000/svg" width="202" height="197">
<path d="M0 0 C2.44611874 0.05612275 4.87930903 0.02069746 7.32543945 -0.02416992 C18.48926255 -0.03501815 18.48926255 -0.03501815 22.75268555 2.7590332 C24.5493665 4.78362602 25.89720903 6.778731 27.24926758 9.1184082 C28.06911133 10.15223633 28.88895508 11.18606445 29.73364258 12.2512207 C30.85512695 13.73235352 30.85512695 13.73235352 31.99926758 15.2434082 C32.86319746 16.37802064 33.72780428 17.5121179 34.59301758 18.64575195 C35.03129883 19.2205127 35.46958008 19.79527344 35.92114258 20.38745117 C38.08916388 23.21305247 40.29396929 26.00936634 42.49926758 28.8059082 C52.50409817 41.508146 62.41048949 54.28719069 72.24926758 67.1184082 C70.8517671 70.27675928 69.19728524 72.44113646 66.74926758 74.8684082 C66.14083008 75.48200195 65.53239258 76.0955957 64.90551758 76.7277832 C63.24926758 78.1184082 63.24926758 78.1184082 61.24926758 78.1184082 C61.24926758 78.7784082 61.24926758 79.4384082 61.24926758 80.1184082 C59.83215332 81.51428223 59.83215332 81.51428223 57.84106445 83.15551758 C52.89414307 87.36525919 48.34859925 91.91092896 43.78051758 96.5246582 C42.90077271 97.4081897 42.02102783 98.29172119 41.11462402 99.20202637 C38.32372252 102.00505954 35.53597526 104.81120736 32.74926758 107.6184082 C29.07528019 111.31941371 25.39761156 115.01672642 21.71801758 118.7121582 C20.88757935 119.55089478 20.05714111 120.38963135 19.20153809 121.25378418 C14.88963971 125.58361144 10.50812803 129.75232121 5.86169434 133.72253418 C4.6121976 134.80422055 3.41787519 135.94980059 2.24926758 137.1184082 C-0.78469849 137.41947937 -0.78469849 137.41947937 -4.7355957 137.48828125 C-5.45455521 137.50302994 -6.17351471 137.51777863 -6.91426086 137.53297424 C-9.29984115 137.57758649 -11.68517577 137.60575066 -14.07104492 137.63012695 C-14.88666775 137.63952616 -15.70229057 137.64892536 -16.54262924 137.65860939 C-20.86360086 137.70622319 -25.18445037 137.73988414 -29.50561523 137.76367188 C-33.95851954 137.79132337 -38.40894985 137.87042281 -42.86094856 137.96121502 C-46.29264752 138.02119427 -49.72376532 138.04095467 -53.15594101 138.05018044 C-54.79625126 138.06173099 -56.43653099 138.0884947 -58.07632828 138.13110924 C-70.87992873 138.44399146 -70.87992873 138.44399146 -75.48513794 135.1809082 C-77.52022455 132.92220694 -79.14485575 130.69374527 -80.75073242 128.1184082 C-81.71056133 126.87246485 -82.67978416 125.6336029 -83.66479492 124.4074707 C-84.57284281 123.1893858 -85.47640004 121.96794201 -86.37573242 120.7434082 C-86.8679126 120.08002441 -87.36009277 119.41664063 -87.8671875 118.7331543 C-88.92785866 117.30185136 -89.98647675 115.86902508 -91.04321289 114.43481445 C-92.88983466 111.9297033 -94.74384928 109.43016269 -96.59838867 106.9309082 C-97.87868903 105.20200247 -99.15864313 103.47284027 -100.43823242 101.7434082 C-101.05069824 100.91663574 -101.66316406 100.08986328 -102.29418945 99.23803711 C-102.86121582 98.4689502 -103.42824219 97.69986328 -104.01245117 96.9074707 C-104.76981567 95.88194092 -104.76981567 95.88194092 -105.54248047 94.83569336 C-108.40879986 90.76180155 -107.87637514 86.76130157 -107.84838867 81.9543457 C-107.84697372 81.04713776 -107.84555878 80.13992981 -107.84410095 79.20523071 C-107.83849338 76.30125665 -107.8259396 73.39735905 -107.81323242 70.4934082 C-107.8082184 68.52726348 -107.80365532 66.56111755 -107.79956055 64.5949707 C-107.78852149 59.7694203 -107.77125177 54.94392723 -107.75073242 50.1184082 C-104.75073242 50.1184082 -104.75073242 50.1184082 -103.01635742 51.8215332 C-102.35120117 52.66200195 -101.68604492 53.5024707 -101.00073242 54.3684082 C-100.20538086 55.37258789 -99.4100293 56.37676758 -98.59057617 57.41137695 C-94.54813645 62.65621323 -90.58869606 67.96434082 -86.63061523 73.27294922 C-80.68823004 81.23696296 -74.67514621 89.15533915 -68.4463501 96.89859009 C-66.75073242 99.1184082 -66.75073242 99.1184082 -65.30381775 101.44160461 C-63.03572675 104.89015001 -61.24268257 107.59586765 -57.25161743 108.99369812 C-54.2752347 109.37061528 -51.41106816 109.46976689 -48.41088867 109.4621582 C-46.78950233 109.50125305 -46.78950233 109.50125305 -45.13536072 109.5411377 C-42.85715705 109.58528626 -40.57843551 109.60751972 -38.29980469 109.60913086 C-34.82453829 109.61837812 -31.35905181 109.71280766 -27.88549805 109.81762695 C-25.6648636 109.85007231 -23.44415039 109.8775803 -21.22338867 109.8996582 C-20.19294937 109.92942749 -19.16251007 109.95919678 -18.10084534 109.98986816 C-11.57615159 109.93315302 -8.1838534 108.73778312 -3.5710907 104.08758545 C-2.97037247 103.43775696 -2.36965424 102.78792847 -1.75073242 102.1184082 C-0.56453119 100.95916081 0.62439576 99.80269531 1.81616211 98.64916992 C3.00728234 97.45127363 4.19585231 96.25083699 5.38208008 95.0480957 C6.0224118 94.40397736 6.66274353 93.75985901 7.32247925 93.09622192 C9.34222708 91.06439916 11.35866177 89.02933945 13.37426758 86.9934082 C16.04058124 84.30034862 18.71029592 81.61072689 21.38208008 78.9230957 C21.98222931 78.31464813 22.58237854 77.70620056 23.20071411 77.07931519 C26.7280254 73.53171742 30.35555128 70.26074449 34.24926758 67.1184082 C33.72457371 62.81591845 31.01802479 59.98046901 28.37426758 56.7434082 C27.37537063 55.497474 26.37667883 54.25137529 25.37817383 53.00512695 C24.86270996 52.36623535 24.34724609 51.72734375 23.81616211 51.0690918 C21.28666067 47.9200241 18.8010913 44.73675805 16.31176758 41.5559082 C14.62696479 39.40792106 12.93889161 37.26261503 11.24926758 35.1184082 C10.61375977 34.17610352 9.97825195 33.23379883 9.32348633 32.26293945 C7.37922144 29.8738537 7.37922144 29.8738537 4.29614258 29.3840332 C-1.53220579 29.3564107 -5.72188493 29.35613091 -10.25073242 33.3059082 C-11.44454692 34.55127378 -12.60958687 35.82460941 -13.75073242 37.1184082 C-17.48954938 40.99098182 -21.43761582 44.48599534 -25.56323242 47.9309082 C-26.16071289 48.43299805 -26.75819336 48.93508789 -27.3737793 49.45239258 C-28.8310209 50.67647552 -30.29063107 51.89773782 -31.75073242 53.1184082 C-36.52855551 50.99034917 -39.51833283 47.55827922 -43.06323242 43.8059082 C-43.72129883 43.14139648 -44.37936523 42.47688477 -45.05737305 41.79223633 C-49.63227648 36.95918787 -49.63227648 36.95918787 -50.11010742 33.56762695 C-47.98439951 29.73768769 -44.94469232 27.12712439 -41.68823242 24.2434082 C-41.00156494 23.61990479 -40.31489746 22.99640137 -39.60742188 22.35400391 C-37.66579031 20.59647869 -35.71170009 18.85430297 -33.75073242 17.1184082 C-32.95151367 16.40813477 -32.15229492 15.69786133 -31.32885742 14.96606445 C-30.14473769 13.9262899 -28.94757611 12.90098334 -27.73217773 11.89794922 C-25.67324418 10.12854455 -25.67324418 10.12854455 -23.8425293 7.87573242 C-16.67156433 0.0334908 -10.03654614 -0.26259879 0 0 Z " fill="#12C6A7" transform="translate(116.750732421875,51.881591796875)"/>
<path d="M0 0 C1.63711832 -0.00150384 3.27423591 -0.00493735 4.91134644 -0.01020813 C8.3327031 -0.01452896 11.75311369 0.00222026 15.17431641 0.03442383 C19.55395091 0.07426833 23.93181872 0.06487392 28.31151009 0.04018879 C31.68828766 0.02599275 35.06465395 0.03610133 38.44140244 0.0537014 C40.05609021 0.05953926 41.67082027 0.05826648 43.28549576 0.0496769 C45.5430049 0.04166362 47.7979405 0.06597325 50.05517578 0.09887695 C51.33756134 0.10587112 52.6199469 0.1128653 53.94119263 0.12007141 C60.06117511 1.2875685 63.02545442 6.51527219 66.6171875 11.26171875 C67.02598145 11.79998291 67.43477539 12.33824707 67.85595703 12.89282227 C68.79316877 14.12691369 69.72894174 15.36209857 70.66357422 16.59814453 C72.55772952 19.09531863 74.46399812 21.58300765 76.37109375 24.0703125 C77.80740705 25.94652626 79.24360482 27.82282847 80.6796875 29.69921875 C81.36973877 30.59898438 82.05979004 31.49875 82.77075195 32.42578125 C83.42906006 33.28816406 84.08736816 34.15054688 84.765625 35.0390625 C85.64420166 36.18749634 85.64420166 36.18749634 86.54052734 37.35913086 C87.1227002 38.15198486 87.70487305 38.94483887 88.3046875 39.76171875 C89.02962402 40.64754639 89.75456055 41.53337402 90.50146484 42.44604492 C92.94165743 46.93294656 92.81209732 50.51346592 92.6953125 55.53515625 C92.68965271 56.45890045 92.68399292 57.38264465 92.67816162 58.3343811 C92.65586802 61.26903293 92.60568498 64.20243936 92.5546875 67.13671875 C92.53461342 69.1327948 92.51636424 71.12889009 92.5 73.125 C92.45602622 78.00438213 92.38704749 82.88283968 92.3046875 87.76171875 C89.3046875 87.76171875 89.3046875 87.76171875 87.97705078 86.47094727 C87.53087402 85.86694092 87.08469727 85.26293457 86.625 84.640625 C85.86026367 83.62162109 85.86026367 83.62162109 85.08007812 82.58203125 C84.53544922 81.83695312 83.99082031 81.091875 83.4296875 80.32421875 C82.25545902 78.75241685 81.08097281 77.18080748 79.90625 75.609375 C79.3071582 74.80129395 78.70806641 73.99321289 78.09082031 73.16064453 C75.36507834 69.49974505 72.58427289 65.88179176 69.8046875 62.26171875 C68.73149901 60.85828074 67.65858392 59.45463362 66.5859375 58.05078125 C64.31814804 55.08489516 62.04679975 52.12177267 59.7734375 49.16015625 C59.19271484 48.40283203 58.61199219 47.64550781 58.01367188 46.86523438 C56.91174265 45.42831867 55.80894327 43.99206965 54.70507812 42.55664062 C54.20169922 41.89986328 53.69832031 41.24308594 53.1796875 40.56640625 C52.74398437 39.99905762 52.30828125 39.43170898 51.859375 38.84716797 C50.3046875 36.76171875 50.3046875 36.76171875 49.38279724 35.03736877 C47.66765056 32.09433327 46.34082803 30.17354536 43.11135864 28.88995361 C40.32650914 28.31438131 37.61108263 27.98413786 34.77734375 27.7421875 C33.20925209 27.60098984 33.20925209 27.60098984 31.60948181 27.4569397 C28.19431226 27.20846013 24.78953128 27.05938118 21.3671875 26.94921875 C20.20840088 26.9064682 19.04961426 26.86371765 17.85571289 26.81967163 C1.6498841 26.52140398 -9.15645721 29.5111542 -21.13597107 40.64064026 C-29.07736173 48.52304117 -36.34274257 57.06250879 -43.12158203 65.95832825 C-44.807944 67.89078696 -46.59747132 69.29663104 -48.6953125 70.76171875 C-48.28906026 75.99345491 -45.50335043 78.91113121 -42.2578125 82.76171875 C-41.1642542 84.09153559 -40.07182612 85.42228256 -38.98046875 86.75390625 C-38.4302002 87.42131836 -37.87993164 88.08873047 -37.31298828 88.77636719 C-34.8775237 91.76537986 -32.53215986 94.82036044 -30.1953125 97.88671875 C-28.69852588 99.84750922 -27.19881638 101.80607422 -25.6953125 103.76171875 C-25.04691406 104.68984375 -24.39851563 105.61796875 -23.73046875 106.57421875 C-21.87918896 108.91407209 -21.87918896 108.91407209 -19.28515625 109.56640625 C-11.8828753 109.76263756 -8.16183392 107.5906039 -2.73828125 102.69140625 C-1.72179891 101.71709164 -0.70767927 100.74030897 0.3046875 99.76171875 C2.27357528 97.8935505 4.24667768 96.03003999 6.22363281 94.17041016 C7.55168888 92.9146358 8.87038996 91.6488808 10.17871094 90.37255859 C10.78618164 89.78941895 11.39365234 89.2062793 12.01953125 88.60546875 C12.55698975 88.08146484 13.09444824 87.55746094 13.64819336 87.01757812 C15.51462686 85.6025547 17.01749233 85.17242445 19.3046875 84.76171875 C21.7694051 87.45537257 24.22892444 90.15340584 26.67578125 92.86328125 C28.2147152 94.55999595 29.76453317 96.24716044 31.33984375 97.91015625 C32.9921875 99.69921875 32.9921875 99.69921875 35.3046875 102.76171875 C35.03465825 106.21885978 33.57829413 107.82001016 31.09375 110.1171875 C30.43109131 110.73537354 29.76843262 111.35355957 29.08569336 111.99047852 C28.37421143 112.63686279 27.66272949 113.28324707 26.9296875 113.94921875 C26.20595947 114.61687256 25.48223145 115.28452637 24.73657227 115.97241211 C19.90099996 120.40041705 14.97125567 124.66131059 9.83203125 128.734375 C7.38983283 130.55249605 7.38983283 130.55249605 6.03955078 132.29541016 C2.10917275 136.63269181 -1.88766893 137.4091945 -7.5703125 137.77734375 C-9.83607144 137.87649633 -12.0975459 137.93812494 -14.36523438 137.97119141 C-16.69255471 138.01167078 -19.01101089 138.11601548 -21.3359375 138.2265625 C-33.69080075 138.64224884 -33.69080075 138.64224884 -38.0703125 135.05859375 C-40.33961027 132.51455629 -42.04428287 129.74323237 -43.6953125 126.76171875 C-45.79359794 123.89622879 -47.99902719 121.1149873 -50.1953125 118.32421875 C-50.82115234 117.52435547 -51.44699219 116.72449219 -52.09179688 115.90039062 C-53.95665025 113.51847291 -55.82532667 111.13960828 -57.6953125 108.76171875 C-58.65366719 107.54168344 -59.61200259 106.32163298 -60.5703125 105.1015625 C-61.87764741 103.43776912 -63.1853981 101.77431065 -64.49438477 100.11181641 C-68.99667363 94.39034707 -73.46239119 88.64051331 -77.92578125 82.88867188 C-78.4878125 82.16486328 -79.04984375 81.44105469 -79.62890625 80.6953125 C-80.15597168 80.01065918 -80.68303711 79.32600586 -81.22607422 78.62060547 C-82.48391455 77.02918036 -83.8191194 75.49943328 -85.16796875 73.984375 C-86.6953125 71.76171875 -86.6953125 71.76171875 -86.51123047 69.8659668 C-85.49656263 67.24914391 -84.15532333 65.84936693 -82.16796875 63.87109375 C-81.45833984 63.16210938 -80.74871094 62.453125 -80.01757812 61.72265625 C-79.27185547 60.99304688 -78.52613281 60.2634375 -77.7578125 59.51171875 C-76.6450293 58.39410156 -76.6450293 58.39410156 -75.50976562 57.25390625 C-69.96225389 51.76171875 -69.96225389 51.76171875 -67.6953125 51.76171875 C-67.6953125 51.10171875 -67.6953125 50.44171875 -67.6953125 49.76171875 C-66.24098206 48.32862854 -66.24098206 48.32862854 -64.22094727 46.65844727 C-59.6756866 42.79089287 -55.4791559 38.65611922 -51.28515625 34.4140625 C-50.51401993 33.63913956 -49.74288361 32.86421661 -48.94837952 32.06581116 C-46.50739319 29.61271451 -44.0696936 27.1563931 -41.6328125 24.69921875 C-38.41571059 21.45538457 -35.1952198 18.21496992 -31.97265625 14.9765625 C-31.24642563 14.24203354 -30.52019501 13.50750458 -29.7719574 12.75071716 C-28.39520819 11.3674188 -27.00439217 9.99794499 -25.59832764 8.64445496 C-23.69962168 6.83235423 -23.69962168 6.83235423 -22.21173096 4.94502258 C-16.49663055 -1.37916658 -7.84974163 -0.08324149 0 0 Z " fill="#13C5A7" transform="translate(96.6953125,11.23828125)"/>
<path d="M0 0 C4.875 0.875 4.875 0.875 6 2 C8.29983022 2.12420734 10.60347386 2.17804453 12.90649414 2.20532227 C13.62840439 2.21522186 14.35031464 2.22512146 15.09410095 2.23532104 C17.49108551 2.26702299 19.88808992 2.29172759 22.28515625 2.31640625 C23.94283069 2.33696829 25.6004998 2.35796455 27.25816345 2.37937927 C31.62948295 2.4346775 36.00085037 2.48405244 40.37225342 2.53222656 C44.82959274 2.58238516 49.28686213 2.6381006 53.74414062 2.69335938 C62.4960347 2.80103568 71.24798712 2.90245945 80 3 C79.67 3.66 79.34 4.32 79 5 C69.2904258 5.11583031 59.58101585 5.20468288 49.87089157 5.25906086 C45.36208449 5.28515929 40.85374995 5.32056122 36.34521484 5.37719727 C31.99448247 5.43150921 27.64420468 5.46141868 23.29315948 5.47438622 C21.63290499 5.48362767 19.97267549 5.50167443 18.31261444 5.52865028 C15.98748449 5.56493208 13.66423449 5.56994607 11.33886719 5.56762695 C10.6519429 5.58560333 9.96501862 5.60357971 9.25727844 5.62210083 C7.32830811 5.60127258 7.32830811 5.60127258 4 5 C1.5413208 2.46452332 1.5413208 2.46452332 0 0 Z " fill="#3AACA1" transform="translate(40,184)"/>
<path d="M0 0 C1 2 1 2 0.4375 3.8125 C-1.14225548 6.21647573 -2.99742759 7.81035313 -5.26953125 9.55859375 C-8.6114538 12.3422719 -11.56044496 15.54240851 -14.5703125 18.67578125 C-15.41335937 19.54589844 -16.25640625 20.41601562 -17.125 21.3125 C-17.97320312 22.19550781 -18.82140625 23.07851562 -19.6953125 23.98828125 C-22 26 -22 26 -25 26 C-25.0928125 26.8353125 -25.0928125 26.8353125 -25.1875 27.6875 C-26.35542592 31.01159684 -28.38582607 32.68979978 -31 35 C-32.051875 35.495 -32.051875 35.495 -33.125 36 C-35.27529448 36.9082703 -35.27529448 36.9082703 -36.25 39.625 C-38 42 -38 42 -39.96484375 42.32421875 C-41.97943534 42.313597 -43.99211424 42.1645808 -46 42 C-45.41837097 41.73556091 -44.83674194 41.47112183 -44.23748779 41.19866943 C-37.52816972 37.60434614 -32.10102994 31.23660019 -26.796875 25.859375 C-26.15179993 25.21051331 -25.50672485 24.56165161 -24.84210205 23.89312744 C-22.80891748 21.84786589 -20.77905152 19.79936137 -18.75 17.75 C-16.06019811 15.03355385 -13.36706188 12.32047717 -10.671875 9.609375 C-10.0614032 8.99060486 -9.4509314 8.37183472 -8.82196045 7.73431396 C-6.01938906 4.9156285 -3.29071214 2.2594464 0 0 Z " fill="#2CBBA3" transform="translate(149,121)"/>
<path d="M0 0 C3.53569565 3.36938244 6.31950733 6.82827371 9.125 10.8125 C12.31052431 14.73052627 12.31052431 14.73052627 16.7109375 16.95703125 C23.45953031 17.36345911 27.46046263 14.90705225 32.41796875 10.53125 C32.94003906 10.0259375 33.46210937 9.520625 34 9 C34.495 9.99 34.495 9.99 35 11 C34.195625 11.61875 33.39125 12.2375 32.5625 12.875 C29.96125481 14.74164041 29.96125481 14.74164041 29 17 C28.01 17 27.02 17 26 17 C26 17.66 26 18.32 26 19 C21.38 19 16.76 19 12 19 C12 18.01 12 17.02 12 16 C9.50935112 15.31292445 7.62113708 15 5 15 C5.185625 14.401875 5.37125 13.80375 5.5625 13.1875 C6.22093687 10.83591238 6.22093687 10.83591238 5 8 C4.34 8 3.68 8 3 8 C3 6.68 3 5.36 3 4 C2.01 3.67 1.02 3.34 0 3 C0 2.01 0 1.02 0 0 Z " fill="#36B6A3" transform="translate(61,104)"/>
<path d="M0 0 C0.75314987 -0.00131424 1.50629974 -0.00262848 2.28227234 -0.00398254 C3.06285507 -0.01492447 3.84343781 -0.02586639 4.64767456 -0.03713989 C6.29932558 -0.05300242 7.95110836 -0.05820216 9.60282898 -0.05354309 C12.11997204 -0.05475524 14.63125908 -0.11442974 17.14750671 -0.17781067 C28.88544598 -0.30240603 28.88544598 -0.30240603 32.79936218 2.2396698 C34.46195984 4.17570496 34.46195984 4.17570496 36.32524109 7.63273621 C35.33524109 7.96273621 34.34524109 8.29273621 33.32524109 8.63273621 C32.98605652 7.8185321 32.64687195 7.004328 32.29740906 6.16545105 C30.50099701 3.27233715 30.50099701 3.27233715 26.94291687 3.04924011 C25.55199783 3.04327304 24.16078202 3.06506872 22.77055359 3.10929871 C22.03199127 3.11400177 21.29342896 3.11870483 20.53248596 3.12355042 C18.1707896 3.14489771 15.81133612 3.2014624 13.45024109 3.25773621 C11.86823115 3.27424582 10.28619706 3.28859326 8.70414734 3.30070496 C-0.04786207 3.31233086 -0.04786207 3.31233086 -8.67475891 4.63273621 C-6.57982163 0.5372282 -4.45657081 0.14168723 0 0 Z " fill="#3DAF9F" transform="translate(106.67475891113281,52.36726379394531)"/>
<path d="M0 0 C2.97 0.495 2.97 0.495 6 1 C6.12375 1.78375 6.2475 2.5675 6.375 3.375 C6.79117993 6.14057822 6.79117993 6.14057822 9 8 C10.98821313 8.39764263 12.98944339 8.73775349 15 9 C15 8.34 15 7.68 15 7 C15.804375 6.87625 16.60875 6.7525 17.4375 6.625 C18.283125 6.41875 19.12875 6.2125 20 6 C20.33 5.34 20.66 4.68 21 4 C22.32 4.33 23.64 4.66 25 5 C21.37 7.97 17.74 10.94 14 14 C9.96696945 11.98348472 7.65659427 9.73699146 4.75 6.4375 C4.29109375 5.93025391 3.8321875 5.42300781 3.359375 4.90039062 C0 1.1460891 0 1.1460891 0 0 Z " fill="#33B6A1" transform="translate(71,91)"/>
<path d="M0 0 C0.66 0 1.32 0 2 0 C2.4125 0.66 2.825 1.32 3.25 2 C4.90933823 4.3664015 4.90933823 4.3664015 8.1875 4.25 C9.115625 4.1675 10.04375 4.085 11 4 C10.9175 5.0725 10.835 6.145 10.75 7.25 C10.64540963 11.01156397 10.64540963 11.01156397 12.875 13.375 C14.89725682 15.02699185 14.89725682 15.02699185 17 16 C17.40729228 18.32156597 17.74438677 20.6568787 18 23 C14.07030585 19.22777993 10.65902877 15.23107365 7.3125 10.9375 C6.82716797 10.32583984 6.34183594 9.71417969 5.84179688 9.08398438 C3.56006976 6.17281529 1.46218961 3.42887739 0 0 Z " fill="#32B8A3" transform="translate(19,93)"/>
<path d="M0 0 C4.21814817 3.9700218 7.61227103 8.30840284 11 13 C9.61811547 16.21043882 8.07578097 18.04936365 5.375 20.25 C4.74335938 20.77078125 4.11171875 21.2915625 3.4609375 21.828125 C2.97882813 22.21484375 2.49671875 22.6015625 2 23 C2 21.35 2 19.7 2 18 C2.639375 17.87625 3.27875 17.7525 3.9375 17.625 C4.618125 17.41875 5.29875 17.2125 6 17 C6.33 16.34 6.66 15.68 7 15 C7.66 15 8.32 15 9 15 C9 14.34 9 13.68 9 13 C8.34 13 7.68 13 7 13 C6.67 12.34 6.34 11.68 6 11 C5.01 11 4.02 11 3 11 C3 9.02 3 7.04 3 5 C2.01 4.67 1.02 4.34 0 4 C0 2.68 0 1.36 0 0 Z " fill="#34B6A2" transform="translate(178,106)"/>
<path d="M0 0 C1.875 0.25 1.875 0.25 4 1 C5.125 3 5.125 3 6 5 C6.66 5.33 7.32 5.66 8 6 C8 6.99 8 7.98 8 9 C8.66 9 9.32 9 10 9 C10.33 9.99 10.66 10.98 11 12 C11.99 12.33 12.98 12.66 14 13 C14.70211894 14.65204456 15.36971413 16.31923769 16 18 C16.66 18.33 17.32 18.66 18 19 C18.625 21.5625 18.625 21.5625 19 24 C15.09045103 20.24683299 11.70003134 16.2750403 8.375 12 C7.65957031 11.09507813 7.65957031 11.09507813 6.9296875 10.171875 C4.36822303 6.89889262 2.04823616 3.62908957 0 0 Z " fill="#3BB5A2" transform="translate(157,60)"/>
<path d="M0 0 C0.33 0 0.66 0 1 0 C1 13.86 1 27.72 1 42 C0.01 42 -0.98 42 -2 42 C-2.495 40.515 -2.495 40.515 -3 39 C-2.34 39 -1.68 39 -1 39 C-0.67 26.13 -0.34 13.26 0 0 Z " fill="#53A69D" transform="translate(188,57)"/>
<path d="M0 0 C0 0.99 0 1.98 0 3 C-0.495 3.433125 -0.99 3.86625 -1.5 4.3125 C-3.3314563 6.02209709 -3.3314563 6.02209709 -3.1875 9.1875 C-3.125625 10.115625 -3.06375 11.04375 -3 12 C-4.2375 12.12375 -5.475 12.2475 -6.75 12.375 C-9.92393362 12.69239336 -12.20625977 13.4521169 -15 15 C-10.72226048 9.75976909 -6.16137595 5.36068517 -1 1 C-0.67 0.67 -0.34 0.34 0 0 Z " fill="#2FB9A2" transform="translate(111,98)"/>
<path d="M0 0 C3.19199167 2.41556126 5.74716687 4.68003538 8 8 C7.67 8.66 7.34 9.32 7 10 C6.01 9.34 5.02 8.68 4 8 C4 7.34 4 6.68 4 6 C2.68 6.33 1.36 6.66 0 7 C0 11.95 0 16.9 0 22 C-0.33 22 -0.66 22 -1 22 C-1.02887814 18.52085059 -1.04675687 15.04173169 -1.0625 11.5625 C-1.07087891 10.56927734 -1.07925781 9.57605469 -1.08789062 8.55273438 C-1.09111328 7.60849609 -1.09433594 6.66425781 -1.09765625 5.69140625 C-1.10289307 4.81685791 -1.10812988 3.94230957 -1.11352539 3.04125977 C-1 1 -1 1 0 0 Z " fill="#42AEA4" transform="translate(10,101)"/>
<path d="M0 0 C4.62 0 9.24 0 14 0 C14 0.66 14 1.32 14 2 C13.154375 1.99097656 12.30875 1.98195313 11.4375 1.97265625 C3.86699413 2.17052174 -0.35372355 3.01814558 -5.70703125 8.50390625 C-6.13371094 8.99761719 -6.56039062 9.49132812 -7 10 C-7.33 9.34 -7.66 8.68 -8 8 C-7.34 8 -6.68 8 -6 8 C-6 7.01 -6 6.02 -6 5 C-5.01 5 -4.02 5 -3 5 C-3 4.01 -3 3.02 -3 2 C-2.01 2 -1.02 2 0 2 C0 1.34 0 0.68 0 0 Z " fill="#40B3A4" transform="translate(110,79)"/>
<path d="M0 0 C3.53191322 3.43153914 6.7137505 6.97375062 9.8125 10.8125 C10.60269531 11.78832031 11.39289063 12.76414062 12.20703125 13.76953125 C13.09455078 14.87361328 13.09455078 14.87361328 14 16 C13.67 16.66 13.34 17.32 13 18 C10 16 10 16 9 13 C8.01 12.67 7.02 12.34 6 12 C5.67 11.01 5.34 10.02 5 9 C4.01 9 3.02 9 2 9 C1.67 9 1.34 9 1 9 C0.67 6.03 0.34 3.06 0 0 Z " fill="#32B8A2" transform="translate(155,77)"/>
<path d="M0 0 C1.69458607 1.64474531 3.35614246 3.30530151 5 5 C5.56203125 5.5775 6.1240625 6.155 6.703125 6.75 C7.25484375 7.348125 7.8065625 7.94625 8.375 8.5625 C8.89835937 9.12066406 9.42171875 9.67882812 9.9609375 10.25390625 C11 12 11 12 10.6640625 14.21484375 C10.44492188 14.80394531 10.22578125 15.39304687 10 16 C9.01 16 8.02 16 7 16 C6.34 15.34 5.68 14.68 5 14 C5.33 13.01 5.66 12.02 6 11 C5.67 10.01 5.34 9.02 5 8 C4.34 8 3.68 8 3 8 C3 6.68 3 5.36 3 4 C2.01 3.67 1.02 3.34 0 3 C0 2.01 0 1.02 0 0 Z " fill="#30B7A1" transform="translate(61,104)"/>
<path d="M0 0 C1 2 1 2 0.4375 3.8125 C-2.48937005 8.26643268 -7.26580492 11.63290246 -12 14 C-12.66 13.67 -13.32 13.34 -14 13 C-12.41984377 11.39270369 -10.83574348 9.78928424 -9.25 8.1875 C-8.36828125 7.29417969 -7.4865625 6.40085937 -6.578125 5.48046875 C-4.46551149 3.44787848 -2.39205335 1.68226182 0 0 Z " fill="#34B6A4" transform="translate(149,121)"/>
<path d="M0 0 C0.66 0.33 1.32 0.66 2 1 C2 1.99 2 2.98 2 4 C2.66 3.67 3.32 3.34 4 3 C5 6 5 6 4 9 C4.66 9 5.32 9 6 9 C6 9.66 6 10.32 6 11 C6.66 11 7.32 11 8 11 C7.67 12.32 7.34 13.64 7 15 C3.7 10.71 0.4 6.42 -3 2 C-2.01 1.34 -1.02 0.68 0 0 Z " fill="#33B6A2" transform="translate(27,162)"/>
<path d="M0 0 C0 0.66 0 1.32 0 2 C0.66 2.33 1.32 2.66 2 3 C1.01 3.33 0.02 3.66 -1 4 C-1.66 7.96 -2.32 11.92 -3 16 C-3.33 16 -3.66 16 -4 16 C-4 11.05 -4 6.1 -4 1 C-2 0 -2 0 0 0 Z " fill="#28C1A8" transform="translate(14,107)"/>
<path d="M0 0 C0.33 0.66 0.66 1.32 1 2 C0 4 0 4 -2.3125 5.375 C-6.16444517 7.70408312 -8.56262593 9.68787779 -10 14 C-11.65 14 -13.3 14 -15 14 C-13.85611961 12.85611961 -12.71191726 11.71255995 -11.56640625 10.5703125 C-10.44408974 9.4451972 -9.32755048 8.31430749 -8.21484375 7.1796875 C-7.60769531 6.56351563 -7.00054687 5.94734375 -6.375 5.3125 C-5.80523437 4.73113281 -5.23546875 4.14976563 -4.6484375 3.55078125 C-3 2 -3 2 0 0 Z " fill="#3EB29F" transform="translate(97,57)"/>
<path d="M0 0 C0 3.90838866 -1.50567876 5.11594107 -4 8 C-3.01 9.485 -3.01 9.485 -2 11 C-1.61500109 12.65549531 -1.27206865 14.3222433 -1 16 C-6.77777778 10.66666667 -6.77777778 10.66666667 -7 7 C-5.56640625 5.078125 -5.56640625 5.078125 -3.5625 3.25 C-2.90378906 2.63640625 -2.24507812 2.0228125 -1.56640625 1.390625 C-1.04949219 0.93171875 -0.53257813 0.4728125 0 0 Z " fill="#3FB19E" transform="translate(17,73)"/>
<path d="M0 0 C0.625 1.875 0.625 1.875 1 4 C0.34 4.66 -0.32 5.32 -1 6 C-1.99 6 -2.98 6 -4 6 C-4 6.99 -4 7.98 -4 9 C-3.34 9 -2.68 9 -2 9 C-2.33 10.32 -2.66 11.64 -3 13 C-4.5625 11.8125 -4.5625 11.8125 -6 10 C-6 6.21700564 -5.01235583 5.01356127 -2.4375 2.1875 C-1.2309375 1.1046875 -1.2309375 1.1046875 0 0 Z " fill="#37B7A2" transform="translate(73,78)"/>
<path d="M0 0 C0.33 0 0.66 0 1 0 C1 3.3 1 6.6 1 10 C1.99 10 2.98 10 4 10 C4.33 12.97 4.66 15.94 5 19 C2.47503527 17.35877293 1.41892588 16.60385345 0 14 C-0.45179989 9.30659644 -0.28626938 4.7011794 0 0 Z " fill="#2BBDA4" transform="translate(11,133)"/>
<path d="M0 0 C3.125 0.375 3.125 0.375 6 1 C3.14723863 3.93200474 0.34920216 6.64315404 -3 9 C-3 7.68 -3 6.36 -3 5 C-2.34 5 -1.68 5 -1 5 C-1.33 4.01 -1.66 3.02 -2 2 C-1.34 1.34 -0.68 0.68 0 0 Z " fill="#28BCA1" transform="translate(172,130)"/>
<path d="M0 0 C1.32 0.33 2.64 0.66 4 1 C0.37 4.3 -3.26 7.6 -7 11 C-7.33 10.01 -7.66 9.02 -8 8 C-7.34 8 -6.68 8 -6 8 C-6 7.34 -6 6.68 -6 6 C-5.01 6 -4.02 6 -3 6 C-3 5.01 -3 4.02 -3 3 C-1.75 1.25 -1.75 1.25 0 0 Z " fill="#37B79F" transform="translate(109,133)"/>
<path d="M0 0 C0.66 0 1.32 0 2 0 C2 0.99 2 1.98 2 3 C3.65 2.34 5.3 1.68 7 1 C6.04578192 2.14926266 5.08647955 3.29430541 4.125 4.4375 C3.59132812 5.07558594 3.05765625 5.71367187 2.5078125 6.37109375 C1 8 1 8 -1 9 C-1.625 7.125 -1.625 7.125 -2 5 C-1.34 4.34 -0.68 3.68 0 3 C0 2.01 0 1.02 0 0 Z " fill="#2BBCA2" transform="translate(162,138)"/>
<path d="M0 0 C1.65 0 3.3 0 5 0 C4.01 1.485 4.01 1.485 3 3 C1.02880859 3.34057617 1.02880859 3.34057617 -1.3515625 3.29296875 C-2.20234375 3.28330078 -3.053125 3.27363281 -3.9296875 3.26367188 C-4.81914063 3.23853516 -5.70859375 3.21339844 -6.625 3.1875 C-7.5221875 3.17396484 -8.419375 3.16042969 -9.34375 3.14648438 C-11.56309789 3.11106925 -13.78125188 3.06168461 -16 3 C-16 2.67 -16 2.34 -16 2 C-8.08 1.505 -8.08 1.505 0 1 C0 0.67 0 0.34 0 0 Z " fill="#25C1AB" transform="translate(96,144)"/>
<path d="M0 0 C2.475 0.495 2.475 0.495 5 1 C5.12375 1.969375 5.2475 2.93875 5.375 3.9375 C5.58125 4.948125 5.7875 5.95875 6 7 C6.66 7.33 7.32 7.66 8 8 C7.01 8 6.02 8 5 8 C3.61328125 6.50390625 3.61328125 6.50390625 2.3125 4.5625 C1.87550781 3.92441406 1.43851563 3.28632812 0.98828125 2.62890625 C0 1 0 1 0 0 Z " fill="#33B7A2" transform="translate(41,121)"/>
<path d="M0 0 C3.28788824 3.11016455 5.83735988 6.01618925 8 10 C6.68 10 5.36 10 4 10 C3.33333333 8.66666667 2.66666667 7.33333333 2 6 C1.62875 5.29875 1.2575 4.5975 0.875 3.875 C0 2 0 2 0 0 Z " fill="#37B3A2" transform="translate(41,141)"/>
<path d="M0 0 C0.66 0.33 1.32 0.66 2 1 C1.27683594 1.68835938 1.27683594 1.68835938 0.5390625 2.390625 C-0.09257812 3.00421875 -0.72421875 3.6178125 -1.375 4.25 C-2.00148438 4.85328125 -2.62796875 5.4565625 -3.2734375 6.078125 C-4.97310161 7.9700588 -5.98459866 9.68201309 -7 12 C-7.66 11.01 -8.32 10.02 -9 9 C-6.03 6.03 -3.06 3.06 0 0 Z " fill="#37B69E" transform="translate(27,63)"/>
<path d="M0 0 C0 4.01847141 -1.22856766 5.15563523 -4 8 C-7.25 9.3125 -7.25 9.3125 -10 10 C-7.02911382 6.00073014 -3.87051275 3.07881696 0 0 Z " fill="#38B6A0" transform="translate(79,13)"/>
<path d="M0 0 C1.66666667 1.66666667 3.33333333 3.33333333 5 5 C5.61875 5.515625 6.2375 6.03125 6.875 6.5625 C7.431875 7.2740625 7.431875 7.2740625 8 8 C7.6875 10.1875 7.6875 10.1875 7 12 C3.55341043 8.55341043 1.68336724 4.53214258 0 0 Z " fill="#40B3A1" transform="translate(124,106)"/>
<path d="M0 0 C1.98 0 3.96 0 6 0 C5.02433888 1.16959987 4.044375 2.33561177 3.0625 3.5 C2.51722656 4.1496875 1.97195312 4.799375 1.41015625 5.46875 C0.94480469 5.9740625 0.47945312 6.479375 0 7 C-0.33 7 -0.66 7 -1 7 C-1.125 2.25 -1.125 2.25 0 0 Z " fill="#2EBAA1" transform="translate(60,64)"/>
<path d="M0 0 C1.32 0.33 2.64 0.66 4 1 C4 1.66 4 2.32 4 3 C-0.95 3 -5.9 3 -11 3 C-11 2.67 -11 2.34 -11 2 C-7.37 2 -3.74 2 0 2 C0 1.34 0 0.68 0 0 Z " fill="#1DC8B2" transform="translate(99,161)"/>
<path d="M0 0 C1.32 0.33 2.64 0.66 4 1 C0.04 4.465 0.04 4.465 -4 8 C-4.33 7.34 -4.66 6.68 -5 6 C-4.34 6 -3.68 6 -3 6 C-3 5.01 -3 4.02 -3 3 C-2.01 3 -1.02 3 0 3 C0 2.01 0 1.02 0 0 Z " fill="#34B7A6" transform="translate(107,81)"/>
<path d="M0 0 C2.62113708 0 4.50935112 0.31292445 7 1 C4.03 3.475 4.03 3.475 1 6 C0.67 4.02 0.34 2.04 0 0 Z " fill="#2EBCA0" transform="translate(129,172)"/>
<path d="M0 0 C1.485 0.99 1.485 0.99 3 2 C5.73872955 2.45772063 5.73872955 2.45772063 8.6875 2.625 C9.68136719 2.69976562 10.67523438 2.77453125 11.69921875 2.8515625 C12.45847656 2.90054688 13.21773437 2.94953125 14 3 C14 3.33 14 3.66 14 4 C7.565 4.495 7.565 4.495 1 5 C0.67 3.35 0.34 1.7 0 0 Z " fill="#44B1A4" transform="translate(72,118)"/>
<path d="M0 0 C1.32 0 2.64 0 4 0 C4 0.66 4 1.32 4 2 C4.66 2.33 5.32 2.66 6 3 C5.34 4.32 4.68 5.64 4 7 C0 2.25 0 2.25 0 0 Z " fill="#2FB8A1" transform="translate(176,84)"/>
<path d="M0 0 C0 3 0 3 -1.4375 4.5 C-1.953125 4.995 -2.46875 5.49 -3 6 C-3.33 6.99 -3.66 7.98 -4 9 C-5.32 8.67 -6.64 8.34 -8 8 C-5.36 5.36 -2.72 2.72 0 0 Z " fill="#3AB4A0" transform="translate(45,46)"/>
<path d="M0 0 C2.96404505 2.80804268 5.44499019 5.18315774 7 9 C4.0625 7.875 4.0625 7.875 1 6 C0.125 2.8125 0.125 2.8125 0 0 Z " fill="#3EAD9D" transform="translate(18,111)"/>
<path d="M0 0 C0.66 0 1.32 0 2 0 C2.33 0.66 2.66 1.32 3 2 C3.99 2.33 4.98 2.66 6 3 C6.33 4.98 6.66 6.96 7 9 C4.03595495 6.19195732 1.55500981 3.81684226 0 0 Z " fill="#37B6A1" transform="translate(130,88)"/>
<path d="M0 0 C0.99 0.33 1.98 0.66 3 1 C-0.465 3.97 -0.465 3.97 -4 7 C-3.39816251 4.97954558 -2.72693904 2.97888961 -2 1 C-1.34 0.67 -0.68 0.34 0 0 Z " fill="#37B5A3" transform="translate(56,71)"/>
<path d="M0 0 C0.33 0.66 0.66 1.32 1 2 C0 5 0 5 -2.4375 6.75 C-3.7059375 7.36875 -3.7059375 7.36875 -5 8 C-5.66 7.67 -6.32 7.34 -7 7 C-4.69 4.69 -2.38 2.38 0 0 Z " fill="#3CB4A1" transform="translate(118,151)"/>
<path d="M0 0 C2.96404505 2.80804268 5.44499019 5.18315774 7 9 C1.21538462 5.67692308 1.21538462 5.67692308 0.125 2.25 C0.08375 1.5075 0.0425 0.765 0 0 Z " fill="#39B8A4" transform="translate(51,91)"/>
<path d="M0 0 C2.25 0.125 2.25 0.125 5 1 C7.3125 4.0625 7.3125 4.0625 9 7 C7.125 6.75 7.125 6.75 5 6 C3.9375 4.0625 3.9375 4.0625 3 2 C2.01 1.34 1.02 0.68 0 0 Z " fill="#3CB19F" transform="translate(134,54)"/>
<path d="M0 0 C2.4375 0.6875 2.4375 0.6875 5 2 C5.8125 4.625 5.8125 4.625 6 7 C1.125 3.375 1.125 3.375 0 0 Z " fill="#32B8A1" transform="translate(35,177)"/>
<path d="M0 0 C0.99 0.33 1.98 0.66 3 1 C3.33 1.99 3.66 2.98 4 4 C2.68 4.99 1.36 5.98 0 7 C0 4.69 0 2.38 0 0 Z " fill="#23BFA2" transform="translate(136,165)"/>
<path d="" fill="#FFFFFF" transform="translate(0,0)"/>
<path d="" fill="#FFFFFF" transform="translate(0,0)"/>
<path d="" fill="#FFFFFF" transform="translate(0,0)"/>
<path d="" fill="#FFFFFF" transform="translate(0,0)"/>
<path d="" fill="#FFFFFF" transform="translate(0,0)"/>
<path d="" fill="#FFFFFF" transform="translate(0,0)"/>
<path d="" fill="#FFFFFF" transform="translate(0,0)"/>
<path d="" fill="#FFFFFF" transform="translate(0,0)"/>
<path d="" fill="#FFFFFF" transform="translate(0,0)"/>
<path d="" fill="#FFFFFF" transform="translate(0,0)"/>
<path d="" fill="#FFFFFF" transform="translate(0,0)"/>
<path d="" fill="#FFFFFF" transform="translate(0,0)"/>
<path d="" fill="#FFFFFF" transform="translate(0,0)"/>
<path d="" fill="#FFFFFF" transform="translate(0,0)"/>
<path d="" fill="#FFFFFF" transform="translate(0,0)"/>
<path d="" fill="#FFFFFF" transform="translate(0,0)"/>
<path d="" fill="#FFFFFF" transform="translate(0,0)"/>
<path d="" fill="#FFFFFF" transform="translate(0,0)"/>
<path d="" fill="#FFFFFF" transform="translate(0,0)"/>
<path d="" fill="#FFFFFF" transform="translate(0,0)"/>
<path d="" fill="#FFFFFF" transform="translate(0,0)"/>
<path d="" fill="#FFFFFF" transform="translate(0,0)"/>
<path d="" fill="#FFFFFF" transform="translate(0,0)"/>
<path d="" fill="#FFFFFF" transform="translate(0,0)"/>
<path d="" fill="#FFFFFF" transform="translate(0,0)"/>
<path d="" fill="#FFFFFF" transform="translate(0,0)"/>
<path d="" fill="#FFFFFF" transform="translate(0,0)"/>
<path d="" fill="#FFFFFF" transform="translate(0,0)"/>
<path d="" fill="#FFFFFF" transform="translate(0,0)"/>
<path d="" fill="#FFFFFF" transform="translate(0,0)"/>
<path d="" fill="#FFFFFF" transform="translate(0,0)"/>
<path d="" fill="#FFFFFF" transform="translate(0,0)"/>
<path d="" fill="#FFFFFF" transform="translate(0,0)"/>
<path d="" fill="#FFFFFF" transform="translate(0,0)"/>
</svg>
